<mxfile host="app.diagrams.net" modified="2024-05-18T07:57:19.103Z" agent="Mozilla/5.0 (Windows NT 10.0; Win64; x64) AppleWebKit/537.36 (KHTML, like Gecko) Chrome/123.0.0.0 Safari/537.36 OPR/109.0.0.0" version="24.4.4" etag="kr4i6HRNSyboFuZ4T7OR" type="github">
  <diagram name="Page-1" id="px525FVTCEnCrwm6705w">
    <mxGraphModel>
      <root>
        <mxCell id="0" />
        <mxCell id="1" parent="0" />
      </root>
    </mxGraphModel>
  </diagram>
</mxfile>
